# xmcd
#
# Track frame offsets:
#	150
#	20025
#	41325
#	58350
#	71175
#	89475
#	107100
#	123975
#	139800
#	152250
#	166125
#	186000
#	207300
#	224325
#	237150
#	255450
#	273075
#	289950
#	305775
#	318225
#
# Disc length: 4429 seconds
#
# Revision: 1
# Processed by: cddbd v1.5.1PL0 Copyright (c) Steve Scherf et al.
# Submitted via: audiograbber 1.82.02
#
DISCID=2a114b14
DTITLE=Various Artist - Country Hits Monthly 0007C
DYEAR=1900
DGENRE=Karaoke
TTITLE0=Garth Brooks - When you come back to me again
TTITLE1=Dixie Chicks - Cold day in July
TTITLE2=LeAnn Rimes - I need you
TTITLE3=Alan Jackson - It must be love
TTITLE4=Chely Wright - She went out for cigarettes
TTITLE5=Clay Davidson - Unconditional
TTITLE6=Steve Holly - Blue moon
TTITLE7=Alabama - We made love
TTITLE8=Joe Diffie - It's always somethin'
TTITLE9=Yankee Grey - Another nine minutes
TTITLE10=Garth Brooks W - Vocals - When you come back to me again W - Vocals
TTITLE11=Dixie Chicks W - Vocals - Cold day in July W - Vocals
TTITLE12=LeAnn Rimes W - Vocals - I need you W - Vocals
TTITLE13=Alan Jackson W - Vocals - It must be love W - Vocals
TTITLE14=Chely Wright W - Vocals - She went out for cigarettes W - Vocals
TTITLE15=Clay Davidson W - Vocals - Unconditional W - Vocals
TTITLE16=Steve Holly W - Vocals - Blue moon W - Vocals
TTITLE17=Alabama W - Vocals - We made love W - Vocals
TTITLE18=Joe Diffie W - Vocals - It's always somethin' W - Vocals
TTITLE19=Yankee Grey W - Vocals - Another nine minutes W - Vocals
EXTD=
EXTT0=
EXTT1=
EXTT2=
EXTT3=
EXTT4=
EXTT5=
EXTT6=
EXTT7=
EXTT8=
EXTT9=
EXTT10=
EXTT11=
EXTT12=
EXTT13=
EXTT14=
EXTT15=
EXTT16=
EXTT17=
EXTT18=
EXTT19=
PLAYORDER=
